<svg version="1" xmlns="http://www.w3.org/2000/svg" width="354.667" height="354.667" viewBox="0 0 266.000000 266.000000"><path d="M144 1.2c-1.4.6-3.6 1.2-4.9 1.4-2.6.5-15.8 8.1-16.7 9.6-.3.5-2.4.6-4.7.3-6.2-.9-11.9.8-20.9 6.2-9 5.3-15.2 10.7-16.2 14.1-.4 1.2-1.2 2.2-1.8 2.2-.6 0-.8.3-.5.6.4.4-.2 1.9-1.3 3.3-1 1.5-2.2 4-2.6 5.7-.3 1.6-1.5 4.3-2.5 6-1.8 3-4.4 16.8-3.4 18.3.5.9-3.2 8.2-7.9 15.6-3 4.8-3.1 5.3-3.1 16.5.1 9 .6 13 2.3 18.4 5.7 17.7 14.8 29.9 26.9 36.3 3.7 2 7.3 4 7.9 4.5 1.8 1.3 10.5 1.9 14.4.9l3.5-.9-3.5-.1c-4.7-.1-19.4-6.4-23.2-9.9-9.4-8.3-16.9-20.2-21.1-33.2-2.4-7.1-2.8-17.6-1.2-24.8 1.6-6.7 5.6-16.4 6.1-14.7.2.5 1 4.1 1.9 8 2.1 9.7 2 9.4 5.5 17.9 1.8 4.2 3.6 7.6 4.2 7.6.6 0 .7-.8.3-1.8-.8-1.7-2.3-8.7-3-13.2-.9-5.9-1.7-9.8-3.1-14.7-2.3-7.8-1.4-20.5 1.7-26.8.6-1.2 1.1-2.7 1.2-3.5.7-4 7.8-15.8 12.2-20.2 6.1-6.1 16.6-12.4 22-13.2 3.3-.5 3.6-.4 1.9.5-2.5 1.3-8.5 12.6-8 15.3.5 3.3 2.1 2.8 3.5-1.1 1.6-4.3 10.2-13.2 17-17.4 7.5-4.8 20.2-8.2 30.6-8.3 7.4 0 10.3.4 16.5 2.7 4.1 1.5 8.8 3.8 10.4 5.2 1.6 1.4 3.2 2.5 3.6 2.5.4 0 3.9 3 7.7 6.7 7.8 7.6 12.6 16.1 14.7 26.4.6 3.3 1.5 5.7 1.8 5.3.9-.9 2.6 6 3.2 13.4.3 3.5.8 6.8 1.2 7.3.3.5.1.9-.4.9s-1.5-1.3-2.2-3c-1.6-3.9-16.4-19.4-15.5-16.1.5 1.5.2 2.7-.6 3.3-1.1.7-1 1.2.8 2.4 9.3 6.5 17.2 22.9 17.3 35.6 0 6.2-4.6 21.4-9.2 29.9-3 5.7-6.8 10.7-12.8 16.8-7.5 7.7-9.8 9.3-19 13.8-5.8 2.8-12.6 5.8-15.2 6.8-2.7 1-4.8 2.2-4.8 2.8 0 .6 1.8.7 4.8.3 11.9-1.7 30.4-11 39.4-19.8 1.5-1.6 3.2-2.8 3.7-2.8 1.4 0 12.1-18.3 14.4-24.5 2.5-7.1 4.4-16.6 4.1-20.6-.2-1.9-.5-5.9-.7-9-.2-3-.6-6-1-6.5-.3-.6-.4-6.4-.3-12.9.2-7.7-.2-14-1.1-17.5-.7-3-1.6-6.5-1.8-7.6-.6-2.4-4.5-11.8-7.8-18.3-5.6-11.3-24.6-25.9-37.2-28.7-4.9-1-24.9-1.2-27.5-.2z"/><path d="M134.2 76.7c-2.1 3.1-2.2 7.1-.2 10.8 1.8 3.4 3.6 3.1 5.6-.7 2.6-4.9.9-12.7-2.8-12.8-.4 0-1.5 1.2-2.6 2.7zM108.1 88.9c-3.5 2.3 4.5 13.6 9.3 12.9 3.1-.4 2.7-7.1-.5-10.3-2.8-2.7-6.8-3.9-8.8-2.6zM155.4 90.4c-3.7 1.7-7.3 6-6.9 8.4.2.9.4 2 .4 2.4.2 1.6 4.6.7 7.7-1.4 3.6-2.5 5.6-5.3 6-8.6.3-2.6-2.3-2.9-7.2-.8zM131.5 103.9c-6.9 1.4-10.8 6.5-10.7 14.1.2 13.6 20.3 17.9 26.5 5.7 2.6-5.1 2.5-10.7-.2-14.6-3.5-4.9-8.6-6.6-15.6-5.2zM95.8 112.7c-.9.2-1.9 1-2.1 1.8-1.7 4.2 8.5 7.5 14.3 4.7 5.7-2.7 3.1-6.1-5.1-6.6-3-.2-6.1-.2-7.1.1zM159.3 113.5c-4.5 3.2-1.7 6.5 5.5 6.5 4.9 0 10.2-1.8 10.2-3.4 0-4.1-11.3-6.2-15.7-3.1zM110.7 134.6c-.3.3 1.3 3.1 3.4 6.3 3.8 5.7 11.8 24.9 12.5 30.1 1.7 12.1 1.3 19.7-1.7 31-1.6 6.3-3.4 13.3-3.9 15.5-1.4 6.2-4.8 15.4-7 19l-2 3.2-10.1-.3c-5.6-.2-12.7.1-15.8.5-14.2 2.3-39 8.7-46.8 12.2-2.4 1-4.5 1.9-4.7 1.9-.3 0-3.4 1.9-7 4.1-4.2 2.6-6.6 4.8-6.6 5.9 0 2.5 2.3 1.8 13.8-3.7 5.1-2.5 9.6-4.3 9.8-4 .3.3 3-.6 5.9-1.9 5.1-2.2 15.5-5.2 20-5.7 1.1-.2 2.5-.6 3.2-1 2.6-1.6 14.7-2.6 29.3-2.3 14 .3 16.8.7 29.2 3.9 26.3 7 49.6 9.3 71.3 7.3 4.4-.4 10.7-.9 14-1.1 3.3-.2 7.1-.6 8.5-.9 3-.8 6.1-1.3 12-2.1 2.5-.4 4.9-1 5.4-1.5 1.7-1.6-2.2-2.2-7.9-1.2-3.1.5-5.8.6-6 .1-.3-.4-1.7-.5-3.2-.3-2.3.4-16.2 1-43.3 1.7-5.2.1-12-.1-15-.5-10.5-1.5-11.7-1.7-13.1-2.2-.8-.3-2.7-.8-4.3-1-3.1-.6-4.6-2-4.6-4.6 0-.9-.4-2-1-2.6-1.5-1.5-5.7-19.1-7-29.7-1.3-9.7-.9-19.2.9-25.1.6-1.7 2.2-7 3.6-11.8 1.5-4.8 4-10.5 5.7-12.8 1.7-2.3 2.7-4.7 2.4-5.6-1.7-4.3-13.2 11.2-16.8 22.6-.3.8-.8-.5-1.2-3-1.6-9.6-6.1-20-14.4-33.2-3.9-6.1-6.3-8.4-7.5-7.2zm21.7 82.9c.4 1.9.7 3.7.6 4 0 .3.6 1.8 1.5 3.5.8 1.6 1.5 3.8 1.5 4.9 0 1.1 1.5 4.9 3.4 8.5 1.9 3.6 3.1 6.7 2.8 6.9-1.2.7-16.5-2.3-17.8-3.4-.7-.5-2.5-1.1-4.1-1.3-3.4-.3-3.3-1 1.7-9.5 2.1-3.6 4.1-7.7 4.5-9.1 1.2-4.5 3.6-9.1 4.4-8.5.5.2 1.2 2.1 1.5 4z"/></svg>