<svg version="1" xmlns="http://www.w3.org/2000/svg" width="793.333" height="793.333" viewBox="0 0 595.000000 595.000000"><path d="M323.5 4.8c-.2.3-3.6.7-7.4.9-3.8.2-8.2 1-9.8 1.8-1.5.8-3.7 1.5-4.8 1.5-2.6 0-10.5 3.1-10.5 4.1 0 .4-1.9 1.7-4.2 2.9-7.7 3.8-10.8 5.7-13.5 8.5-2.2 2.1-3.3 2.5-5.8 2.1-10.7-2.1-11.4-2.1-23.5 1.6-1.9.6-8.4 4-14.3 7.7-6 3.6-12 7.2-13.3 7.9-3.5 1.9-14.4 13-14.4 14.6 0 .8-.3 1.6-.7 1.8-1.2.5-4.3 6.4-4.3 8.2 0 .8-.6 1.9-1.2 2.3-1.9 1.2-5.8 8.8-5.8 11.3 0 1.2-1.6 5-3.5 8.5-3.8 6.7-4.4 8.5-4.9 15-.2 2.2-.7 6.5-1.1 9.5-.4 3-.8 7.5-.8 10-.1 2.7-.8 5.1-1.8 6-.9.8-2.7 3.5-4 6-1.2 2.5-4.2 7.5-6.6 11.1-5.5 8.4-7.3 16.5-6.7 30.4.2 5.5.6 10.7.7 11.5.4 1.7 1.9 10.6 2.2 13 .1.8 1 3.3 2 5.5s2 5.3 2.2 7c.3 1.6 1.1 4.1 1.8 5.5.8 1.4 3.2 6.5 5.6 11.5 4.8 10.2 9.7 17.1 16.9 23.4 2.8 2.4 5 4.8 5 5.3 0 1.4 5.3 5.7 7.1 5.8.9 0 2.8.9 4.2 2 1.4 1.1 2.9 2 3.3 2 .4 0 4.3 2.1 8.8 4.7 7.6 4.3 8.6 4.7 17.2 5.2 5.1.3 9 .3 8.7-.1-.4-.8 1.1-1.1 6.2-1 2.9.1 2.9.1-.5-.8-1.9-.5-5.3-1-7.5-1.1-2.2-.2-6.3-1.6-9.2-3.1-2.9-1.6-5.3-2.8-5.5-2.7-.6.5-8.3-2.5-11.3-4.2-1.6-1.1-3.8-1.9-4.8-1.9s-1.6-.4-1.3-.9c.3-.5-1.8-2.9-4.6-5.2-2.9-2.4-6.2-5.4-7.3-6.7-1.1-1.3-3.6-4.2-5.6-6.5-2-2.3-5.5-7.8-7.9-12.2-2.4-4.4-5.4-9.5-6.6-11.4-1.3-1.9-2.1-3.8-1.8-4.2.3-.5-.2-2.1-1-3.7-1.5-2.9-4.7-12-6.2-17.7-1.4-5.4-2.3-23.5-1.3-29 2.1-12.6 9.8-33.3 11.8-32 .5.3 1.2 3.3 1.6 6.7.4 3.5 1.2 6.9 1.7 7.5.6.7.8 1.3.5 1.3-.3 0 .1 2.4 1 5.2.9 2.9 1.7 6.2 1.9 7.3.4 2.5 2.9 9.7 5.3 15 1 2.2 2.8 6.4 4.1 9.2 1.6 3.6 2.9 5.3 4.2 5.3 2.2 0 2.2-.4.2-2.4-1.3-1.3-2.3-5.3-3.9-15.6-.1-.8-.5-2.2-.8-3-.3-.8-.8-4.2-1.2-7.5-1.1-9.1-1.2-9.6-3-15.5-3.8-12.4-4.5-17-4-26.8.3-5.3.7-10.8 1-12.2.3-1.4.7-3.5.9-4.7.3-1.2 1.4-4.2 2.4-6.7 1.1-2.4 2.3-5.9 2.7-7.7 1.1-4.7 11-23.5 15.3-28.9 4.1-5.1 7.5-8.3 14.7-13.9 5.6-4.4 22.1-14.2 22.8-13.5.2.2 2.3-.3 4.7-1.1 2.3-.8 4.9-1.5 5.6-1.5 1.7 0 1.9 2 .2 2-2 .1-5.4 3.3-7.2 6.8-.9 1.8-1.4 3.2-1.1 3.2.3 0-.5 1.5-1.9 3.3-3.3 4.3-5.6 10.9-4.9 13.9 1.2 5 4.3 6 4.3 1.4 0-1.3.8-3.4 1.9-4.7 1-1.3 2.1-3.4 2.5-4.6.8-2.6 13.8-15.5 21.9-21.7 5.3-4.1 17-9.8 24.2-11.7 1.7-.5 5.5-1.5 8.5-2.4 3-.8 7.1-1.8 9-2.1 6.4-1.1 23.4-1.2 28.5-.2 6 1.1 17.6 4.7 19.1 5.9.9.7 3 1.3 6.4 1.8.3.1 1.7 1.1 3.2 2.4 5.2 4.4 6.4 5.2 9.1 6.6 1.5.8 6.9 5.4 11.9 10.3 5 4.8 9.4 8.8 9.8 8.8.4 0 1.9 1.8 3.4 4 1.4 2.2 2.3 4 1.9 4-.3 0 .2 1 1.3 2.2 4.2 4.8 11.2 25.8 11.6 34.7.1 2.5.6 4 1.2 3.8.6-.3 1-1 .9-1.6-.2-.6.2-1.1.7-1.1.6 0 1 .6 1.1 1.2 0 .7.2 2 .4 2.8 1.8 8.5 2.3 10.7 2.3 12 .2 4.5 1.4 16.7 1.9 18 .8 2.2 1.4 8 .9 8-.3 0-1.6-2.4-3-5.3-3.8-8.2-7.6-13.2-18.1-23.8-9.7-9.8-12.2-11.4-9.4-6.3 1.3 2.5 1.2 2.8-.9 4.2-3 2-2.8 2.9 1.6 5.1 4.4 2.3 11.9 10.2 14.8 15.6 1.1 2.2 3.7 7 5.8 10.7 2 3.6 3.8 7.4 4 8.5.2 1 1.1 4.8 1.9 8.4 2.5 10.3 3.1 20.9 1.7 27-.7 3-1.6 5.8-2 6.4-.5.5-.8 1.3-.8 1.8-.2 5.1-5.5 21.5-8.7 26.3-.8 1.3-1.5 2.8-1.5 3.3 0 1-5.8 11-6.9 12.1-.4.3-1.4 2.2-2.5 4.2-1 2.1-5.5 7.5-10 12.1-4.4 4.6-9.3 9.8-10.8 11.5-4.3 4.9-34.6 22.2-39 22.2-.9 0-1.9.4-2.2.9-.3.4-4 2.1-8.3 3.6-4.3 1.6-8.8 3.4-10.1 4.1-2.1 1.1-2.1 1.2-.5 1.9 2.6 1.2 5.3 1.2 8.8.3 1.7-.5 4.5-1.1 6.3-1.4 1.8-.3 5.2-1.4 7.5-2.4 2.3-1.1 5-2 6-2 1.9 0 7.8-2.8 8.7-4 .8-1.1 13-7 14.5-7 .7 0 1.5-.3 1.7-.8.2-.4 1.9-1.5 4-2.6 2-1 5.5-3.6 7.8-5.7s4.6-3.9 5.2-3.9c.6 0 2.6-1.8 4.6-4.1 2-2.3 4.7-4.5 5.9-5 2.2-.8 7-7.4 11.6-16.1 1.3-2.4 3.9-6.8 5.8-9.8 3.8-5.8 6.2-11.7 5.4-13-.3-.4.1-1 .8-1.3.7-.3 1.9-2.4 2.6-4.8.7-2.3 1.7-5.4 2.3-6.8.6-1.4 1.1-4.2 1.3-6.2.2-2.1.7-4.5 1.3-5.5 1.1-2.2.9-26.2-.3-31.4-.4-1.9-.9-4.7-1-6.3-.1-1.5-.8-3.3-1.4-4.1-.7-.9-.9-3.5-.5-7.7.4-3.5.7-13.7.7-22.5-.1-15.4-.3-16.6-3.4-26.5-1.8-5.7-3.3-10.9-3.4-11.4 0-.6-1.1-3.3-2.3-6-1.3-2.8-3.2-7.3-4.3-10-1.1-2.8-2.7-6.1-3.4-7.5-.8-1.4-2.6-4.7-4.1-7.5-2.4-4.5-7.5-10.4-15.9-18.7-4-4-16.5-12.8-18-12.8-.7 0-1.5-.6-1.8-1.3-.7-1.7-12.8-7.7-13.3-6.5-.1.2-1-.4-2-1.3-1.1-.9-3.5-2.1-5.4-2.7-6.9-2-35.2-4.7-36.5-3.4z"/><path d="M295.9 132c-.9.5-2.8 2.7-4.4 5-2.5 3.6-2.7 4.5-2.1 9.6.8 6.7 3.8 11.7 6.9 11.2 1.2-.2 3.3-2 4.7-4.2 2.2-3.2 2.6-4.8 2.4-9.5-.4-7.9-.7-8.7-3.5-11-1.7-1.3-3-1.6-4-1.1zM249.5 155.7c-2.8.7-3.6 2.3-2.9 5.7 1.1 5.2 4.8 11 9.3 14.4 3.6 2.7 4.9 3.2 7.5 2.6 1.7-.3 3.4-.8 3.9-1.1 2.3-1.4-1-12.3-5.1-16.6-3.6-3.9-8.9-5.9-12.7-5zM333.5 157.4c-2.2.6-5.4 1.9-7.1 2.8-4 2.2-9.4 8.3-9.5 10.8-.1 1.1-.2 2.6-.3 3.2-.4 2.1 2.6 4.8 5.1 4.8 7.9 0 21-14.4 18.7-20.5-.8-2-2.5-2.3-6.9-1.1zM286.1 182.6c-5 1.5-11.2 5.9-13.9 9.9-4.9 7.6-3.4 22 3 28.2 5.2 5 12.2 7.7 19 7.5 10.9-.3 18.6-6.1 22.2-16.5 3.3-9.8 1.5-17.4-5.9-24.3-6.4-6.1-14.6-7.7-24.4-4.8zM231.4 197c-6.1.6-8.6 2.4-8.2 5.8.5 4.3 4.7 6.4 13.5 6.9 6.8.4 8.4.1 11.5-1.7 4.4-2.6 5.4-4.7 3.2-7.1-2.8-3.1-11.5-4.8-20-3.9zM336 198.2c-6 3-6.6 6.6-1.8 9.6 4.5 2.9 17.3 2.6 23.5-.6 2.3-1.2 4.4-2.6 4.7-3 .8-1.3-4.6-6.1-8-7.1-6.3-1.7-13.7-1.3-18.4 1.1zM252 235.7c0 .9 1.1 2.8 2.5 4.3 4.2 4.4 11.8 19.1 16.1 31.5 1.3 3.8 2.9 7.4 3.4 7.9.6.6 1 2 1 3.2 0 1.2.4 2.4 1 2.6.5.1 1.1 1.2 1.3 2.3.1 1.1.6 2.5 1 3.2.4.7 1 4.7 1.3 9 .3 4.3.9 9.1 1.3 10.8 2.4 9.2-1.2 32.4-8.4 55-1.4 4.4-2.7 9.3-2.9 11-.1 1.6-.5 3.7-.8 4.5-.4.8-2 5.8-3.6 11.1-2.7 8.6-8.4 19.9-10.4 20.7-.5.2-.5.9-.1 1.4.4.8-1.3.9-5.5.5-4-.4-6.3-.3-6.8.4-.5.8-.9.8-1.4 0-.8-1.4-22.8-1.7-27.5-.4-1.6.5-5 .8-7.5.7-2.5-.1-5 .3-5.7.8-.6.5-2.2 1.1-3.5 1.3-5.7 1.1-6.9 1.4-8 2.1-.6.4-2.5.8-4.2.9-3.9.3-7.4 1-10.3 1.9-1.2.4-3 .9-4 1.1-1 .2-3.8 1.1-6.2 1.9-2.5.9-6.5 1.9-9 2.2-2.5.3-5.7 1.3-7.1 2.2-1.4.9-3.6 1.7-5 1.8-1.4.1-2.5.2-2.5.3 0 .1-1.2.4-2.8.6-1.5.2-5.3 1.7-8.4 3.4-3.1 1.7-6.1 3.1-6.6 3.1s-3.2 1.6-6.1 3.5c-2.9 1.9-5.6 3.5-5.9 3.5-.9 0-10.7 6.2-10.8 6.9-.1.3-.3 2.1-.5 4-.4 3-.2 3.2 1.2 2 .9-.7 2.8-1.2 4.3-1.1 1.6.1 4.7-1.1 7.7-3 2.7-1.8 5.1-3.3 5.4-3.4 3.5-1 7-2.8 7-3.6 0-.5.4-.7 1-.3.5.3 3.3-.6 6.1-2.1 2.9-1.4 6.6-2.7 8.4-2.9 1.7-.1 4.9-1.2 7.1-2.3 2.1-1.1 4.1-2 4.4-2 .3 0 1.8-.5 3.3-1.1 1.5-.6 3.9-1.4 5.3-1.7 1.3-.3 2.6-1 2.9-1.4.3-.5 1.4-.6 2.5-.3s2 .1 2-.4c0-.6 1-.8 2.3-.6 1.3.3 4.1-.3 6.3-1.3 2.1-.9 4.9-1.7 6.2-1.7 1.2 0 2.2-.4 2.2-1 0-.5.6-.5 1.4.2 1 .9 1.5.8 1.9-.3.3-.8 1.4-1.4 2.4-1.2 1 .2 2.9-.1 4.3-.7 1.4-.5 4.1-1.1 6-1.3 1.9-.1 5.8-.6 8.5-1 5.8-.9 41.5-1.2 43-.4.6.3 3 .6 5.5.6 2.5.1 6.3.5 8.5.9s4.7.8 5.5 1c.8.1 4.1 1 7.3 1.9 3.2 1 6.1 1.5 6.4 1.2.4-.3 1.3 0 2.1.6.8.7 1.9 1.3 2.6 1.4.6.2 2.2.5 3.6.9 1.4.3 3.7.7 5.3 1 1.5.3 4.9 1.3 7.5 2.2 2.6.9 6.1 1.7 7.7 1.8 6.5.6 17.4 2.1 20.5 3 1.5.4 11.2 1.6 16 2 3 .2 7.7.8 10.4 1.3 5 1 42 .8 49-.3 2.1-.3 4.7-1 5.7-1.6 1.3-.6 2.5-.6 3.8.1 2.1 1 5.1.4 6.3-1.4.5-.7.8-.7.8-.1 0 2 15.5.9 28.5-2 3.3-.7 9.9-1.9 14.8-2.5 7.5-1 8.7-1.5 8.7-3.1 0-1-.3-1.9-.7-2-4.9-.5-7.2-.4-9.3.4-1.4.5-3.7.9-5.2.8-1.4-.1-3.8.3-5.2.9-2.1.8-2.8.7-3.2-.5-.5-1.1-1.6-1.3-4.3-.9-2 .3-6.6.7-10.2.8-3.7.2-7.1.6-7.7 1-.6.3-1.3.3-1.6-.2-.5-.8-4-.8-28.6.3-15.2.7-22.4 1.1-23.5 1.5-.5.1-1.2.1-1.5 0-.3-.1-5.9-.4-12.5-.5-15.5-.4-22.1-1.2-35.5-4.2-1.4-.4-3.4-.8-4.5-1-8.7-1.4-11.4-2.5-12.5-5.2-.6-1.5-1-3.2-.9-3.7.2-.5-.6-2.7-1.8-4.9-1.1-2.2-2.8-6.9-3.8-10.5-.9-3.6-1.8-7.2-2.1-8-2.6-9.4-4.2-16.7-4.8-21.6-.3-3.2-.9-8.4-1.3-11.4-1.5-10.5-.9-31 1-39.5 1.1-4.4 2.4-9 2.9-10.1.6-1.2 1.1-3.5 1.3-5 .1-1.6.9-4.5 1.8-6.4.9-1.9 2.8-6.9 4.3-11s4-9.1 5.6-11.1c1.5-2 2.8-4.1 2.8-4.7 0-.6.4-1.2 1-1.4.5-.2 1.1-1.4 1.2-2.8.4-3-2.4-3.9-4.8-1.6-.9.9-3.1 2.8-5 4.2-1.9 1.5-3.4 3.1-3.4 3.6s-1.3 2.8-2.9 5.1c-1.5 2.3-3.1 5.2-3.5 6.4-.4 1.3-1.2 2.3-1.7 2.3s-.9.6-.9 1.3c0 .7-.9 3.2-2 5.5-2.4 4.9-4.3 9.4-4.4 10.4-.2 1.7-1.6 1.9-1.7.2 0-1-.3-3-.5-4.4-.3-1.4-.6-3.6-.8-5-.4-3.9-1.7-9.4-2.6-10.5-.4-.6-1.5-3.3-2.3-6-3.4-11.4-22.9-44.4-28.3-48-3-1.9-3.4-1.9-3.4.2zm36.3 138.5c1 3.5 2.7 9 3.8 12.3 1.2 3.3 2.4 7.6 2.8 9.5 1 4.7 4.1 12.9 6.1 16 5.2 8.2 7 16.7 2.7 13.2-.8-.7-3.6-1.4-6.3-1.7-2.7-.3-6-.7-7.4-1-1.4-.2-3.8-.7-5.5-.9-6.2-1.1-7.8-1.6-9.5-3.1-.9-.8-3.4-1.7-5.6-1.9-7.4-.7-7.6-1.1-4.1-6.9 1.8-2.9 3.8-5.8 4.5-6.5.6-.7 1.2-1.8 1.2-2.3 0-2 .2-2.5 1.5-3.9 1.7-1.9 6.5-12.1 6.5-13.9 0-.7 1.1-3.5 2.5-6.2 1.3-2.7 2.2-4.9 1.9-4.9-.2 0 0-.9.6-2 1.7-3.2 2.5-2.4 4.3 4.2zM478.8 440.7c-2.2 2.5-3.4 5-5.9 12.4-1.2 3.5-2.6 7.5-3.2 8.9-1.9 4.7-2.6 9.3-3.3 23-.6 11.7-.8 16.1-.4 17 1.3 3.6.8 4.9-2 5.5-4.7 1-11.8 5.3-14 8.6-2.1 2.9-2.7 4.6-3.5 10.8-.3 1.8-.7 3.7-1 4.1-.2.4 0 2 .5 3.6s1.2 4.1 1.5 5.6c1.3 6.6 9.2 9.2 19.2 6.3 3.2-.9 6.8-2.3 8-3.1 2.1-1.3 2.4-1.2 4.8 2.4 3.2 4.9 6.6 6.6 9.1 4.8 1.7-1.3 1.5-1.6-1.9-5.7-2-2.3-3.7-4.7-3.7-5.3 0-.6-.8-2.9-1.9-5.1-6-12.7-8.9-31.5-6.8-44.5.3-2.5.9-7 1.3-10 .3-3 1.5-9.1 2.6-13.5 1-4.4 2.1-9.4 2.4-11 .3-1.7.9-4.1 1.4-5.5.5-1.4 1.1-4.3 1.2-6.5.3-4.5-1.7-5.8-4.4-2.8zm-7.7 87.1c1 2.3 1.9 5.1 1.9 6 0 4.1-15.3 7.9-18.1 4.5-.8-.9-1.4-4.1-1.4-7.7 0-5.2.4-6.6 2.6-8.9 1.4-1.6 4.3-3.4 6.5-4.2l3.9-1.3 1.3 3.6c.7 2.1 2.2 5.6 3.3 8z"/><path d="M254.6 443.6c-2.2 2.2-6.5 9.6-6.9 11.9-.2 1.1-.8 3-1.5 4.2-.7 1.2-1.4 3.5-1.6 5-.2 1.5-1.4 7.6-2.7 13.6-1.9 9.4-2.4 10.7-4 10.2-2.9-.9-12.2 3.9-15.2 7.8-10.1 13.3-9.1 31.8 2.2 37.7 2.7 1.4 10.6.7 13-1.2 4.7-3.7 5.6-3.8 9-.3 1.9 1.9 3.9 3.1 4.7 2.8 1.5-.5 1.9-2.5.7-3.7-.8-.7-1.1-2.1-1.8-8.1-.3-2.2-.8-5.1-1.1-6.5-.3-1.4-.6-6.8-.5-12 .2-8.1.8-13.8 3.5-34 .9-6.5 2.8-15.5 3.8-17.8.6-1.5 1-3.2.9-3.9-.1-.6.3-1.4.9-1.8.5-.3 1-1.7 1-3.1 0-2.8-2.1-3.2-4.4-.8zm-15.2 56.1c.3 1.6.5 5.6.4 9.1 0 5.1-.5 6.7-2.1 8.3-1.1 1-2.7 1.9-3.4 1.9-.7 0-1.3.4-1.3 1 0 1.6-5.7 1.2-7.4-.6-1.9-1.8-1.9-2.7-.4-7.9.6-2.2 1.1-4.5 1-5-.4-2.4 8-9.3 11.5-9.5.6 0 1.4 1.2 1.7 2.7zM324.4 452.9c.4.5-.3.7-1.4.4-2.7-.7-2.6 1.3.4 7 1.4 2.5 2.3 4.7 2 5-.2.2.2 1.9 1 3.8 1.6 4 2.5 9.4 3.2 20.4 1 16.4 1.2 28.6.3 35.7-.5 4-1.1 9.8-1.4 12.8-.4 3-.8 6-1 6.7-.2.7 0 1.5.6 1.8.5.4.7 1 .4 1.5-.8 1.4 1.4 2.2 4 1.6 1.3-.3 6-4.3 10.5-8.8l8.1-8.2 2.4 2.6c1.3 1.4 2.2 2.8 1.9 3-.8.9 5.6 12.8 6.9 12.9.7 0 2.1.2 3.1.4 2.6.5 4.7-2.4 4.1-5.3-.3-1.3-.2-2.8.2-3.5.4-.6.8-4.1.9-7.7.3-8.8.8-11.2 3.5-16.7 1.2-2.6 2.4-5.6 2.5-6.8.1-1.1.9-3.3 1.8-4.9.8-1.6 1.3-3.3 1-3.8-.3-.4-.1-.8.4-.8.6 0 2-3.3 3.2-7.3 1.2-3.9 2.8-7.9 3.5-8.7.7-.8 2.5-3.8 3.9-6.5 3.3-6.3 8.3-12.9 11.9-15.6 4.3-3.3 3.6-4.9-2.3-4.6-2.7.1-5 .5-5 .9 0 .3-1.3 1.9-2.9 3.4-1.7 1.5-3.2 3.8-3.6 5.1-.3 1.3-1.1 2.3-1.9 2.3-.7 0-1.9 1.3-2.6 3-.7 1.6-1.6 3-2.1 3s-.9.6-.9 1.3c0 .8-.9 2.2-2 3.2s-2 2.6-2 3.6-.6 2.2-1.3 2.6c-2.3 1.3-4.8 5.9-6.2 11.2-.7 2.8-1.1 5.1-.9 5.1.2 0-.5 1.8-1.6 4s-2.1 5.7-2.2 7.8c-.1 2-.7 5.1-1.5 6.9-.7 1.8-1.3 4.4-1.3 5.8 0 3.3-1.2 3.2-3.3-.5-2.9-4.8-10.9-6-12.3-1.8-.3 1-1.1 1.7-1.7 1.5-.6-.2-2 .5-3.1 1.4-1 1-2.2 1.6-2.6 1.4-.3-.2-.4-4.8-.2-10.2.9-18.1.3-30.4-1.7-39.3-.5-2.2-.7-4-.6-4 .2 0-1-3.6-2.5-8-3.1-8.8-7.5-17-9.1-17-.6 0-.8.4-.5.9zM142.7 459.8c-2 2.2-7.7 15.5-7.7 18 0 1-1.3 3.6-3 5.8-1.6 2.1-3 4.7-3 5.6 0 1-.4 1.8-.9 1.8s-1.9 2.6-3.2 5.7l-2.3 5.8-.7-3.5c-.4-1.9-.9-5.5-1.2-8-.8-6.9-4.3-24.5-5.1-25.8-1.5-2.5-4.2-1.1-3.7 2 0 .4.3 4 .6 8s.7 9.5 1 12.3c.2 2.7.7 7.9 1 11.5l.5 6.5-3.1-3.8c-2.9-3.6-6.1-4.8-7.4-2.7-.5.9 2 4.2 7.4 9.9 3.2 3.3 3.1 7.1-.3 12-3.7 5.4-1.7 8.8 2.4 4.1 1.1-1.2 2.1-1.7 2.4-1.1.4.5.7 8.3.7 17.3 0 20.8.6 27.8 2.5 27.8 1.2 0 1.9-1.3 1.2-2.3-.1-.1.4-1.3 1.1-2.5 1.4-2.6 2.4-16.1 2.4-31.4l-.1-9.8 2.6 2.1c1.4 1.1 4 3.7 5.8 5.7 1.7 2 6.5 5.9 10.5 8.7 4.1 2.7 8.1 5.6 8.9 6.4 1.7 1.7 13 7.1 14.8 7.1.6 0 1.2-.7 1.2-1.5s-.4-1.5-1-1.5c-.5 0-1-.6-1-1.4 0-.8-1-1.8-2.2-2.2-2.5-.7-8.8-6.7-8.8-8.2 0-.5-1.4-1.5-3.1-2.2-1.7-.7-5.6-3.7-8.7-6.6-3.1-3-6-5.4-6.4-5.4-.3 0-.9-.8-1.3-1.9-.3-1-3-3.5-6.1-5.5-4.4-3-5.3-4-4.5-5.4.5-.9.9-1.9.9-2.2 0-1.2 4.5-8 5.3-8 .5 0 .9-.6.9-1.4 0-.8.4-1.6.8-1.8.4-.2 1.9-2.8 3.4-5.8 11.6-24.6 12.7-27.7 11-31.5-1.4-3-2.3-3.1-4.5-.7zM413 460.1c-.8 1.1-1.3 2.6-1.2 3.2.2.7.5 9 .7 18.6.5 22 1.2 29 4.2 40.6.3 1.1.6 3.3.8 5 .1 1.6.8 4.2 1.4 5.8.6 1.5 1.3 3.8 1.5 5.1.6 3.4 3.3 8.2 5.9 10.7 2.7 2.5 9.2 6 10 5.3.3-.3 2-.8 3.9-1.1 1.8-.3 3.6-1 4-1.6 1.7-2.6.1-4.2-6-5.9-3.4-1.1-6-2.3-5.7-2.8.3-.5 0-1.2-.6-1.6-1.3-.8-4.1-7-4.6-10.4-.3-1.3-.8-2.9-1.3-3.6-.9-1-1.5-4-2.4-11.9-.2-2.2-.7-5.1-1-6.5-.4-1.4-.8-6.3-1.1-11-.2-4.7-.7-11.7-1-15.5-.3-3.9-.7-10.4-.9-14.5-.2-4.1-.4-8.1-.5-8.8-.2-2-4.5-1.4-6.1.9zM159.2 480.5c-1.7 2.1-1.8 3.1-1 5.9.6 1.9 2.1 4 3.3 4.6 3.3 1.8 8.4.4 9.6-2.7 1.4-3.7 1.1-5.2-1.6-7.8-3.2-3.3-7.7-3.3-10.3 0z"/><path d="M267 483.5c-6.7 2.2-12.8 7.9-15 14.4-3.1 8.6-1.6 20.6 3.2 26.7 3.7 4.6 9.1 9.5 12.7 11.4 4.7 2.3 11.6 2.7 12.4.6.9-2.4-.4-5.4-2.6-6-3-.7-16.1-13.2-15.2-14.5.3-.6 1.7-1.1 3-1.1 5.4 0 14.8-6.5 18.5-12.8 3.9-6.5 2.5-14.5-3-18-2.9-1.8-9.4-2.1-14-.7zm10.9 8.7c.9 1.5.8 2-.3 2.4-.8.3-2.1 2.2-2.9 4.3-1.2 2.8-2.6 4.2-5.9 5.7-2.3 1-5.4 2.9-6.7 4.2-2.8 2.8-3 2.6-3.6-2.3-.8-5.8 2.7-12.2 7.9-14.6 5-2.3 10-2.2 11.5.3zM309.2 489.6c-1.2.8-2.6 1.2-3.2.9-2.5-1.6-10.8 6.1-13.6 12.6-.7 1.4-1.5 5-1.9 8-.9 6.3-1.1 7.3-2.3 11.5-.6 1.7-.8 4.2-.6 5.5.2 1.3.6 4.5.9 7.1.6 4.2.9 4.8 3 4.8 2.7 0 3.9-1.8 4.9-7 .3-1.9.9-4.6 1.2-6 .3-1.4.9-5.7 1.4-9.6 1.3-10.3 6.5-18.7 12.4-20 4.3-.9 5.7-2.2 5.1-5.2-.7-4.2-3.6-5.2-7.3-2.6zM193.5 490.3c-5.2 1.8-9 4.3-9.4 6.3-.2 1-.8 2.2-1.5 2.6-1.7 1-1.2 17.8.8 28.5 1.5 7.5 2.2 9.3 3.8 9.9 3.1 1 3.9-1.3 3.3-10.1-.8-11.9-1.5-18.6-2-19.5-.7-1.1 4.7-5.8 7.6-6.5 2.1-.5 2.7-.1 3.8 2.2.8 1.5 1.5 4.9 1.7 7.4.1 2.5 1 6.4 1.9 8.5 1.9 4.4 2.4 6.4 2.9 11.6.5 4.4 1.2 5.8 3.1 5.8 1.4 0 3.8-3.3 3.1-4.1-.5-.6-1.8-17.6-2-25.9-.1-7.8-.8-9.4-5.7-13.8-3.5-3-7.7-4.1-11.4-2.9zM165.2 502.3c-.9 1.1-2.6 12-2.4 15.2.1.5.3 3.5.5 6.5.4 6.6 4.1 16.8 6.8 19.4 2.8 2.5 10.9 1.5 10.9-1.5 0-1-.6-1.9-1.4-1.9-.8 0-2.4-.8-3.7-1.9-2.2-1.7-2.4-2.6-3.3-10.1-.3-1.9-.7-4.6-1.1-6-.4-1.4-.8-5.7-.9-9.5-.1-3.9-.6-8-1-9.3-.8-2.4-2.8-2.9-4.4-.9zM390 512.7c-6 1.9-8 3.7-8 7 0 2.8 1.7 3.3 6.1 1.7 5.3-1.8 9.2-2.1 9.6-.7.3.7-1 1.5-3 1.8-1.9.4-5.8 2.6-8.8 4.9-10 7.8-13.3 20.5-6.4 25 3.7 2.4 13.2 2.4 15 0 .8-1.1 1.5-1.5 1.5-1s.7.2 1.7-.5c1.1-1 1.7-1 2-.3 1.3 4 6.9 6.7 7.9 4 .3-.9.3-2.4-.2-3.4-.4-.9-.8-1.9-.9-2.2-1.9-7.4-2.6-12.3-2.9-20.8-.4-11.6-1.7-14.6-6.7-15.6-3.5-.7-4.7-.7-6.9.1zm7.5 23.2c0 6.5-.2 6.9-2.8 8.5-1.6.9-3.3 1.4-3.8 1-.5-.3-.9-.1-.9.3 0 .5-1.3 1-2.8 1.1-3.5.3-3.8-2-1.1-6 1.1-1.4 1.9-3 1.9-3.5 0-1.1 4.7-5.6 7.5-7.1 1.1-.6 2-1.2 2-1.2v6.9zM207.2 548.1c-.8.8-9.8 1.7-19.9 2.2-3.5.1-6.8.8-7.5 1.5-.7.7-1.8 1.2-2.4 1.2-.7 0-2.5.5-4.1 1.2-1.5.6-3.7 1.3-4.8 1.5-1.1.2-2.1.8-2.3 1.3-.2.5-.9.7-1.7.4-1.6-.6-14.2 3-19.4 5.6-4.1 2-16.5 8.2-22.8 11.4-2.4 1.1-4.3 2.5-4.3 3.1-.1.5-2 2.4-4.3 4-3.4 2.5-4.2 3.7-4.2 6.3 0 1.8 0 3.2.1 3.2 1.3 0 7.5-2.8 9.3-4.2 1.3-1 3.1-1.8 4.1-1.8.9 0 2.8-1 4.1-2.3 1.3-1.3 8.6-5.4 16.2-9.1 12.4-6 17.4-7.7 30.6-10.2 1.4-.3 2.9-.8 3.5-1.1.5-.4 2.1-.8 3.5-.9 5.6-.6 16.7-2.3 18.4-2.8.9-.3 2.5-.9 3.5-1.3 3.9-1.4 11.5-1.7 34.7-1 6.6.2 12.2.5 12.5.7.3.2 1.6.4 3 .5 6.2.5 12.3 1.6 14 2.5 1 .6 3.2 1 4.9 1 1.7 0 3.1.4 3.1.9s1.8.8 4 .6c2.2-.2 4 .1 4 .6 0 .6.4.8.9.4.5-.3 1.2-.1 1.6.5.4.6 1.1.8 1.6.5.5-.3 3.7.1 7.1.9 6.5 1.5 9.8 2.1 18.3 3.2 2.8.3 5.7 1 6.6 1.5.9.5 5 1.1 9 1.3 4.1.3 8.5.8 9.9 1 1.4.3 5.2 1 8.5 1.7 4.9.9 16.2 1.8 24.5 1.9 13.4.1 24-.3 24-.9 0-.6 3.2-1.3 5.5-1.2 11.5.8 64.2 0 68-1 1.7-.4 5-1 7.5-1.3 2.5-.3 5.7-.8 7.3-1.1 1.5-.3 3.9-.7 5.3-.9 5.7-1 9.3-2.7 8.7-4.2-.3-.7-.9-1.2-1.3-.9-.4.2-1.8-.4-3-1.5-1.5-1.3-3.1-1.8-4.2-1.4-1.1.3-6.8.7-12.6.9-5.9.2-12 .7-13.7 1-1.6.3-17.2.7-34.6.9-17.4.2-32.1.6-32.6.9-1.4.9-8.9 1.1-14 .4-2.4-.3-4.5-.1-4.8.3-.3.5-1.5.6-2.8.3-1.2-.2-5.3-.7-9.1-.9-3.8-.2-7.4-.9-8.1-1.4-.7-.6-3-1.1-5.2-1.1-7.8 0-12.8-.4-13.3-1.1-.6-.7-8.7-1.6-21-2.3-6-.3-13.8-1.1-15-1.6-.3-.1-1.3-.1-2.2 0-1 .1-2.6-.2-3.6-.8-1-.5-4-1.1-6.6-1.2-2.6-.2-4.9-.7-5.2-1.1-.3-.5-.9-.6-1.2-.4-.4.2-3 0-5.7-.6-2.8-.5-5.9-1.1-7-1.3-1.1-.2-5.6-1.1-10-2.1-4.4-.9-12.5-1.9-18-2-26.1-.9-34.6-.9-35.3-.3z"/></svg>